<mxfile host="app.diagrams.net" modified="2023-08-25T14:25:10.837Z" agent="Mozilla/5.0 (X11; Linux x86_64; rv:103.0) Gecko/20100101 Firefox/103.0" etag="dcsWVRAw76UuPsdL21Td" version="21.6.9" type="github">
  <diagram id="R2lEEEUBdFMjLlhIrx00" name="Page-1">
    <mxGraphModel dx="1434" dy="718" grid="1" gridSize="10" guides="1" tooltips="1" connect="1" arrows="1" fold="1" page="1" pageScale="1" pageWidth="850" pageHeight="1100" math="0" shadow="0" extFonts="Permanent Marker^https://fonts.googleapis.com/css?family=Permanent+Marker">
      <root>
        <mxCell id="0" />
        <mxCell id="1" parent="0" />
        <mxCell id="EFmKZFrOiTKr-SMHRezf-1" value="" style="whiteSpace=wrap;html=1;aspect=fixed;" vertex="1" parent="1">
          <mxGeometry x="30" y="150" width="80" height="80" as="geometry" />
        </mxCell>
        <mxCell id="EFmKZFrOiTKr-SMHRezf-2" value="ESCOLA" style="text;strokeColor=none;align=center;fillColor=none;html=1;verticalAlign=middle;whiteSpace=wrap;rounded=0;" vertex="1" parent="1">
          <mxGeometry x="30" y="175" width="80" height="30" as="geometry" />
        </mxCell>
        <mxCell id="EFmKZFrOiTKr-SMHRezf-3" value="TER" style="rhombus;whiteSpace=wrap;html=1;" vertex="1" parent="1">
          <mxGeometry x="160" y="150" width="80" height="80" as="geometry" />
        </mxCell>
        <mxCell id="EFmKZFrOiTKr-SMHRezf-4" value="" style="endArrow=none;html=1;rounded=0;dashed=1;dashPattern=1 2;exitX=1;exitY=0.5;exitDx=0;exitDy=0;" edge="1" parent="1" source="EFmKZFrOiTKr-SMHRezf-3">
          <mxGeometry relative="1" as="geometry">
            <mxPoint x="290" y="189.5" as="sourcePoint" />
            <mxPoint x="320" y="190" as="targetPoint" />
          </mxGeometry>
        </mxCell>
        <mxCell id="EFmKZFrOiTKr-SMHRezf-5" value="N" style="resizable=0;html=1;whiteSpace=wrap;align=right;verticalAlign=bottom;" connectable="0" vertex="1" parent="EFmKZFrOiTKr-SMHRezf-4">
          <mxGeometry x="1" relative="1" as="geometry" />
        </mxCell>
        <mxCell id="EFmKZFrOiTKr-SMHRezf-10" value="" style="endArrow=none;html=1;rounded=0;dashed=1;dashPattern=1 2;exitX=1;exitY=0.5;exitDx=0;exitDy=0;" edge="1" parent="1">
          <mxGeometry relative="1" as="geometry">
            <mxPoint x="110" y="189.5" as="sourcePoint" />
            <mxPoint x="160" y="190" as="targetPoint" />
          </mxGeometry>
        </mxCell>
        <mxCell id="EFmKZFrOiTKr-SMHRezf-11" value="1" style="resizable=0;html=1;whiteSpace=wrap;align=right;verticalAlign=bottom;" connectable="0" vertex="1" parent="EFmKZFrOiTKr-SMHRezf-10">
          <mxGeometry x="1" relative="1" as="geometry" />
        </mxCell>
        <mxCell id="EFmKZFrOiTKr-SMHRezf-12" value="TURMAS" style="whiteSpace=wrap;html=1;aspect=fixed;" vertex="1" parent="1">
          <mxGeometry x="320" y="150" width="80" height="80" as="geometry" />
        </mxCell>
        <mxCell id="EFmKZFrOiTKr-SMHRezf-15" value="PROF" style="whiteSpace=wrap;html=1;aspect=fixed;" vertex="1" parent="1">
          <mxGeometry x="640" y="150" width="80" height="80" as="geometry" />
        </mxCell>
        <mxCell id="EFmKZFrOiTKr-SMHRezf-17" value="" style="endArrow=none;html=1;rounded=0;dashed=1;dashPattern=1 2;exitX=1;exitY=0.5;exitDx=0;exitDy=0;" edge="1" parent="1">
          <mxGeometry relative="1" as="geometry">
            <mxPoint x="400" y="189.5" as="sourcePoint" />
            <mxPoint x="480" y="189.5" as="targetPoint" />
          </mxGeometry>
        </mxCell>
        <mxCell id="EFmKZFrOiTKr-SMHRezf-18" value="1" style="resizable=0;html=1;whiteSpace=wrap;align=right;verticalAlign=bottom;" connectable="0" vertex="1" parent="EFmKZFrOiTKr-SMHRezf-17">
          <mxGeometry x="1" relative="1" as="geometry" />
        </mxCell>
        <mxCell id="EFmKZFrOiTKr-SMHRezf-19" value="MINISTRAR" style="rhombus;whiteSpace=wrap;html=1;" vertex="1" parent="1">
          <mxGeometry x="480" y="150" width="80" height="80" as="geometry" />
        </mxCell>
        <mxCell id="EFmKZFrOiTKr-SMHRezf-20" value="" style="endArrow=none;html=1;rounded=0;dashed=1;dashPattern=1 2;exitX=1;exitY=0.5;exitDx=0;exitDy=0;" edge="1" parent="1">
          <mxGeometry relative="1" as="geometry">
            <mxPoint x="560" y="189.5" as="sourcePoint" />
            <mxPoint x="640" y="189.5" as="targetPoint" />
          </mxGeometry>
        </mxCell>
        <mxCell id="EFmKZFrOiTKr-SMHRezf-21" value="N" style="resizable=0;html=1;whiteSpace=wrap;align=right;verticalAlign=bottom;" connectable="0" vertex="1" parent="EFmKZFrOiTKr-SMHRezf-20">
          <mxGeometry x="1" relative="1" as="geometry" />
        </mxCell>
        <mxCell id="EFmKZFrOiTKr-SMHRezf-22" value="AULA" style="whiteSpace=wrap;html=1;aspect=fixed;" vertex="1" parent="1">
          <mxGeometry x="480" y="280" width="80" height="80" as="geometry" />
        </mxCell>
        <mxCell id="EFmKZFrOiTKr-SMHRezf-23" value="" style="endArrow=none;html=1;rounded=0;dashed=1;dashPattern=1 2;entryX=0.5;entryY=0;entryDx=0;entryDy=0;" edge="1" parent="1" target="EFmKZFrOiTKr-SMHRezf-22">
          <mxGeometry relative="1" as="geometry">
            <mxPoint x="519.5" y="230" as="sourcePoint" />
            <mxPoint x="520" y="260" as="targetPoint" />
          </mxGeometry>
        </mxCell>
        <mxCell id="EFmKZFrOiTKr-SMHRezf-24" value="N" style="resizable=0;html=1;whiteSpace=wrap;align=right;verticalAlign=bottom;" connectable="0" vertex="1" parent="EFmKZFrOiTKr-SMHRezf-23">
          <mxGeometry x="1" relative="1" as="geometry" />
        </mxCell>
        <mxCell id="EFmKZFrOiTKr-SMHRezf-25" value="SALA" style="whiteSpace=wrap;html=1;aspect=fixed;" vertex="1" parent="1">
          <mxGeometry x="320" y="370" width="80" height="80" as="geometry" />
        </mxCell>
        <mxCell id="EFmKZFrOiTKr-SMHRezf-26" value="TER" style="rhombus;whiteSpace=wrap;html=1;" vertex="1" parent="1">
          <mxGeometry x="320" y="260" width="80" height="80" as="geometry" />
        </mxCell>
        <mxCell id="EFmKZFrOiTKr-SMHRezf-27" value="" style="endArrow=none;html=1;rounded=0;dashed=1;dashPattern=1 2;entryX=0.5;entryY=0;entryDx=0;entryDy=0;" edge="1" parent="1">
          <mxGeometry relative="1" as="geometry">
            <mxPoint x="360" y="230" as="sourcePoint" />
            <mxPoint x="360" y="260" as="targetPoint" />
          </mxGeometry>
        </mxCell>
        <mxCell id="EFmKZFrOiTKr-SMHRezf-28" value="1" style="resizable=0;html=1;whiteSpace=wrap;align=right;verticalAlign=bottom;" connectable="0" vertex="1" parent="EFmKZFrOiTKr-SMHRezf-27">
          <mxGeometry x="1" relative="1" as="geometry" />
        </mxCell>
        <mxCell id="EFmKZFrOiTKr-SMHRezf-29" value="" style="endArrow=none;html=1;rounded=0;dashed=1;dashPattern=1 2;" edge="1" parent="1">
          <mxGeometry relative="1" as="geometry">
            <mxPoint x="359.5" y="340" as="sourcePoint" />
            <mxPoint x="360" y="370" as="targetPoint" />
          </mxGeometry>
        </mxCell>
        <mxCell id="EFmKZFrOiTKr-SMHRezf-30" value="1" style="resizable=0;html=1;whiteSpace=wrap;align=right;verticalAlign=bottom;" connectable="0" vertex="1" parent="EFmKZFrOiTKr-SMHRezf-29">
          <mxGeometry x="1" relative="1" as="geometry" />
        </mxCell>
      </root>
    </mxGraphModel>
  </diagram>
</mxfile>
